<svg height="512" viewBox="0 0 64 64" width="512" xmlns="http://www.w3.org/2000/svg" xmlns:xlink="http://www.w3.org/1999/xlink"><linearGradient id="linear-gradient" gradientUnits="userSpaceOnUse" x1="9" x2="51" y1="34.01" y2="34.01"><stop offset="0" stop-color="#ff5c3c"/><stop offset="1" stop-color="#ff2e04"/></linearGradient><linearGradient id="linear-gradient-2" gradientUnits="userSpaceOnUse" x1="11" x2="44" y1="36.51" y2="36.51"><stop offset="0" stop-color="#fd8f07"/><stop offset="1" stop-color="#fd7504"/></linearGradient><linearGradient id="linear-gradient-3" gradientUnits="userSpaceOnUse" x1="16" x2="32.38" y1="45.88" y2="29.5"><stop offset="0" stop-color="#fed370"/><stop offset="1" stop-color="#fda736"/></linearGradient><linearGradient id="linear-gradient-4" x1="15" x2="21.5" xlink:href="#linear-gradient-2" y1="40.25" y2="40.25"/><linearGradient id="linear-gradient-5" x1="21" x2="26.5" xlink:href="#linear-gradient-2" y1="40.25" y2="40.25"/><linearGradient id="linear-gradient-6" x1="30" x2="35.86" xlink:href="#linear-gradient-2" y1="30.05" y2="30.05"/><linearGradient id="linear-gradient-7" x1="15.3" x2="19.5" xlink:href="#linear-gradient-2" y1="46.6" y2="46.6"/><linearGradient id="linear-gradient-8" x1="14" x2="20" xlink:href="#linear-gradient-3" y1="19" y2="19"/><linearGradient id="linear-gradient-9" x1="12.25" x2="27.79" xlink:href="#linear-gradient-2" y1="51.75" y2="36.21"/><linearGradient id="linear-gradient-10" x1="48" x2="51" xlink:href="#linear-gradient-3" y1="42.5" y2="42.5"/><linearGradient id="linear-gradient-11" x1="20" x2="23" xlink:href="#linear-gradient-3" y1="14.5" y2="14.5"/><linearGradient id="linear-gradient-12" x1="24" x2="33.5" xlink:href="#linear-gradient-3" y1="12.75" y2="12.75"/><linearGradient id="linear-gradient-13" x1="45" x2="57.5" xlink:href="#linear-gradient-3" y1="32.75" y2="32.75"/><linearGradient id="linear-gradient-14" x1="34" x2="37" xlink:href="#linear-gradient-3" y1="6.5" y2="6.5"/><linearGradient id="linear-gradient-15" x1="11" x2="13" xlink:href="#linear-gradient-3" y1="15" y2="15"/><linearGradient id="linear-gradient-16" x1="54" x2="56" xlink:href="#linear-gradient" y1="21" y2="21"/><linearGradient id="linear-gradient-17" x1="23" x2="25" xlink:href="#linear-gradient-2" y1="7" y2="7"/><linearGradient id="linear-gradient-18" x1="49" x2="51" xlink:href="#linear-gradient-3" y1="51" y2="51"/><linearGradient id="linear-gradient-19" x1="39" x2="41" xlink:href="#linear-gradient" y1="11" y2="11"/><linearGradient id="linear-gradient-20" x1="56" x2="58" xlink:href="#linear-gradient-2" y1="37" y2="37"/><g id="comet"><path d="m51 23s-12.23 21.71-17.84 27.62l-.07.07a1.8 1.8 0 0 1 -.19.21 14 14 0 0 1 -19.8-19.8 3.45 3.45 0 0 1 .28-.26c5.7-5.49 20.62-13.84 20.62-13.84s.17 1.08.39 2.87c8.54-3.72 16.36-6.77 16.61-6.87-.1.27-1.82 4.66-4.22 10.39 2.59-.26 4.22-.39 4.22-.39z" fill="url(#linear-gradient)"/><path d="m44 27.86s-9.61 17.06-14 21.7l-.05.06-.15.16a11 11 0 0 1 -15.58-15.56 2.09 2.09 0 0 1 .22-.2c4.48-4.32 16.2-10.88 16.2-10.88s.14.85.31 2.26c6.71-2.92 12.85-5.32 13.05-5.4-.08.21-1.43 3.66-3.31 8.16 2.03-.16 3.31-.3 3.31-.3z" fill="url(#linear-gradient-2)"/><path d="m36 28.67v4.26l-3 3.2v1.87l-3 3v3l-3 3h-4l-2 2h-4l-.29-.29-1.41-1.43-.3-.31v-9.12l3-3.04v-3.04l2-1.77h5.25l3.75-4h4.5l1.04 1.11 1.32 1.41z" fill="url(#linear-gradient-3)"/><path d="m21.21 38.21-5.5 5.5a1 1 0 0 1 -.71.29v-2.42l4.79-4.79a1 1 0 0 1 1.42 1.42z" fill="url(#linear-gradient-4)"/><path d="m22 43a1 1 0 0 1 -.71-.29 1 1 0 0 1 0-1.42l3.5-3.5a1 1 0 0 1 1.42 1.42l-3.5 3.5a1 1 0 0 1 -.71.29z" fill="url(#linear-gradient-5)"/><path d="m35.86 28.52a.9.9 0 0 1 -.15.19l-4 4a1 1 0 0 1 -1.42 0 1 1 0 0 1 0-1.42l4-4a1.14 1.14 0 0 1 .25-.18z" fill="url(#linear-gradient-6)"/><path d="m19.21 46.21-2.5 2.5-1.41-1.43 2.49-2.49a1 1 0 0 1 1.42 1.42z" fill="url(#linear-gradient-7)"/><path d="m15 22a1 1 0 0 1 -.71-.29 1 1 0 0 1 0-1.42l4-4a1 1 0 0 1 1.42 1.42l-4 4a1 1 0 0 1 -.71.29z" fill="url(#linear-gradient-8)"/><path d="m26.58 57.89a20.55 20.55 0 0 1 -14.58-5.89c-8-8-7.83-21.58.29-29.71a1 1 0 0 1 1.42 1.42c-7.36 7.36-7.5 19.67-.29 26.87s19.51 7.08 26.87-.29l5-5a1 1 0 0 1 1.42 1.42l-5 5a21.4 21.4 0 0 1 -15.13 6.18z" fill="url(#linear-gradient-9)"/><path d="m49 44a1 1 0 0 1 -.71-.29 1 1 0 0 1 0-1.42l1-1a1 1 0 0 1 1.42 1.42l-1 1a1 1 0 0 1 -.71.29z" fill="url(#linear-gradient-10)"/><path d="m21 16a1 1 0 0 1 -.71-.29 1 1 0 0 1 0-1.42l1-1a1 1 0 0 1 1.42 1.42l-1 1a1 1 0 0 1 -.71.29z" fill="url(#linear-gradient-11)"/><path d="m25 17a1 1 0 0 1 -.66-1.76l7.5-6.5a1 1 0 0 1 1.32 1.52l-7.5 6.5a1 1 0 0 1 -.66.24z" fill="url(#linear-gradient-12)"/><path d="m46 39a1 1 0 0 1 -.71-.29 1 1 0 0 1 0-1.42l10.5-10.5a1 1 0 0 1 1.42 1.42l-10.5 10.5a1 1 0 0 1 -.71.29z" fill="url(#linear-gradient-13)"/><path d="m35 8a1 1 0 0 1 -.71-.29 1 1 0 0 1 0-1.42l1-1a1 1 0 1 1 1.42 1.42l-1 1a1 1 0 0 1 -.71.29z" fill="url(#linear-gradient-14)"/><circle cx="12" cy="15" fill="url(#linear-gradient-15)" r="1"/><circle cx="55" cy="21" fill="url(#linear-gradient-16)" r="1"/><circle cx="24" cy="7" fill="url(#linear-gradient-17)" r="1"/><circle cx="50" cy="51" fill="url(#linear-gradient-18)" r="1"/><circle cx="40" cy="11" fill="url(#linear-gradient-19)" r="1"/><circle cx="57" cy="37" fill="url(#linear-gradient-20)" r="1"/></g></svg>