<svg id="Capa_1" enable-background="new 0 0 512 512" height="512" viewBox="0 0 512 512" width="512" xmlns="http://www.w3.org/2000/svg"><path d="m403.282 307.26 88.365-3.656-48.984-73.656 69.337-54.898-82.916-30.794 23.834-85.174-85.174 23.834-30.794-82.916-54.898 69.337-73.656-48.984-3.656 88.365-88.364 3.656 48.983 73.656-69.337 54.897 87.681 32.576 27.397 27.397 27.397 27.397 32.576 87.681 54.897-69.337 73.656 48.983z" fill="#ffda44"/><path d="m271.073 415.978 54.897-69.337 73.656 48.983 3.656-88.364 88.365-3.656-48.984-73.656 69.337-54.898-82.916-30.794 23.834-85.174-241.818 241.818 27.397 27.397z" fill="#ff9f22"/><path d="m314.618 239.809-21.213-21.214-21.214-21.213h-42.426l-42.426 42.427v42.426l21.213 21.213 21.213 21.213h42.426l42.427-42.426z" fill="#e50058"/><path d="m272.191 324.661 42.427-42.426v-42.426l-21.213-21.214-84.853 84.853 21.213 21.213z" fill="#a3003c"/><path d="m187.339 239.809-187.339 187.338 42.426 42.427 42.427 42.426 187.338-187.339-42.426-42.426z" fill="#ff5b5b"/><path d="m335.831 176.169-42.426-42.426-63.64 63.639 42.426 42.427 42.427 42.426 63.639-63.64z" fill="#ff5b5b"/><g fill="#e50058"><path d="m24.841 367.118h264.937v60h-264.937z" transform="matrix(.707 -.707 .707 .707 -234.73 227.547)"/><path d="m280.224 199.202h90v60h-90z" transform="matrix(.707 -.707 .707 .707 -66.814 297.1)"/></g></svg>