<svg id="Icons" height="512" viewBox="0 0 60 60" width="512" xmlns="http://www.w3.org/2000/svg"><path d="m34.77 27.14c-15.92 7.03-21.77 31.86-21.77 31.86l-3-7-7 7 3-12-5 1c5.91-20.67 22.71-28.8 31.1-31.65h.01l5.89 2.65z" fill="#fab153"/><g fill="#fdcd56"><path d="m52.51 19.82a1.122 1.122 0 0 0 -.31.97l1.449 8.91a1.087 1.087 0 0 1 -1.569 1.17l-7.57-4.18a1.031 1.031 0 0 0 -1.02 0l-7.57 4.18a1.088 1.088 0 0 1 -1.57-1.17l.42-2.56 1.03-6.35a1.122 1.122 0 0 0 -.31-.97l-3.38-3.47h-.01l-2.78-2.85a1.129 1.129 0 0 1 .6-1.9l8.5-1.3a1.077 1.077 0 0 0 .82-.61l3.79-8.06a1.062 1.062 0 0 1 1.94 0l3.79 8.06a1.077 1.077 0 0 0 .82.61l8.5 1.3a1.129 1.129 0 0 1 .6 1.9z"/><path d="m49 36 2.475 4.525 4.525 2.475-4.525 2.475-2.475 4.525-2.475-4.525-4.525-2.475 4.525-2.475z"/><path d="m31 44 2.475 4.525 4.525 2.475-4.525 2.475-2.475 4.525-2.475-4.525-4.525-2.475 4.525-2.475z"/><path d="m10 1 2.475 4.525 4.525 2.475-4.525 2.475-2.475 4.525-2.475-4.525-4.525-2.475 4.525-2.475z"/></g><path d="m30 22.425a1 1 0 0 1 -.389-1.921c.364-.154.723-.3 1.074-.439a1 1 0 0 1 .734 1.86q-.506.2-1.03.421a1.009 1.009 0 0 1 -.389.079z" fill="#ffc483"/><path d="m7.237 43.673a1 1 0 0 1 -.905-1.423 42.589 42.589 0 0 1 19.2-19.808 1 1 0 1 1 .938 1.766 40.629 40.629 0 0 0 -18.325 18.892 1 1 0 0 1 -.908.573z" fill="#ffc483"/><path d="m12.912 48a1 1 0 0 1 -.912-1.4 58.757 58.757 0 0 1 9.28-15.255 1 1 0 0 1 1.51 1.31 56.835 56.835 0 0 0 -8.959 14.745 1 1 0 0 1 -.919.6z" fill="#ffc483"/><path d="m24.927 30a1 1 0 0 1 -.682-1.732c.361-.335.731-.664 1.105-.985a1 1 0 1 1 1.3 1.52q-.531.453-1.042.929a1 1 0 0 1 -.681.268z" fill="#ffc483"/></svg>