<svg id="Capa_1" enable-background="new 0 0 510 510" height="512" viewBox="0 0 510 510" width="512" xmlns="http://www.w3.org/2000/svg" xmlns:xlink="http://www.w3.org/1999/xlink"><linearGradient id="SVGID_1_" gradientUnits="userSpaceOnUse" x1="-10.866" x2="525.811" y1="255" y2="255"><stop offset="0" stop-color="#eaf6ff"/><stop offset=".5213" stop-color="#d8ecfe"/><stop offset="1" stop-color="#b3dafe"/></linearGradient><linearGradient id="SVGID_2_" gradientUnits="userSpaceOnUse" x1="92.545" x2="544.025" y1="255" y2="255"><stop offset="0" stop-color="#d8ecfe"/><stop offset=".5667" stop-color="#b3dafe"/><stop offset=".9955" stop-color="#8ac9fe"/></linearGradient><linearGradient id="lg1"><stop offset="0" stop-color="#814aa0"/><stop offset="1" stop-color="#192a7d"/></linearGradient><linearGradient id="SVGID_3_" gradientUnits="userSpaceOnUse" x1="-178.583" x2="461.485" xlink:href="#lg1" y1="254.903" y2="254.903"/><linearGradient id="SVGID_4_" gradientUnits="userSpaceOnUse" x1="-283.206" x2="235.271" xlink:href="#lg1" y1="420.413" y2="420.413"/><linearGradient id="SVGID_5_" gradientUnits="userSpaceOnUse" x1="-283.206" x2="235.271" xlink:href="#lg1" y1="191.865" y2="191.865"/><linearGradient id="SVGID_6_" gradientUnits="userSpaceOnUse" x1="-283.206" x2="235.271" xlink:href="#lg1" y1="119.49" y2="119.49"/><linearGradient id="SVGID_7_" gradientUnits="userSpaceOnUse" x1="-283.206" x2="235.271" xlink:href="#lg1" y1="380.271" y2="380.271"/><linearGradient id="SVGID_8_" gradientUnits="userSpaceOnUse" x1="-283.206" x2="235.271" xlink:href="#lg1" y1="237.517" y2="237.517"/><g><circle cx="255" cy="255" fill="url(#SVGID_1_)" r="255"/><path d="m255 0c-6.862 0-13.658.279-20.383.811 65.789 5.204 124.549 35.377 166.81 81.04-6.572-1.8-13.482-2.78-20.625-2.78-43.037 0-77.926 34.888-77.926 77.926 0 40.567 31.003 73.881 70.605 77.573-6.163 7.087-9.724 16.496-9.166 26.748 1.022 18.775 16.13 34.12 34.888 35.405 21.96 1.504 40.241-15.864 40.241-37.502 0-8.159-2.599-15.71-7.015-21.871-5.378-7.504-4.205-17.838 2.44-24.247.154-.149.308-.298.461-.448 11.222-11.003 30.121-4.359 32.022 11.242 1.242 10.194 1.882 20.573 1.882 31.103 0 70.309-28.467 133.958-74.489 180.085 3.15-7.754 4.723-16.318 4.274-25.304-1.52-30.37-26.271-54.924-56.653-56.188-33.88-1.41-61.789 25.639-61.789 59.206 0 6.991 1.211 13.699 3.434 19.927 12.415 34.778-10.42 72.49-47.154 76.259-.753.077-1.499.145-2.238.204 6.723.531 13.519.811 20.381.811 140.833 0 255-114.167 255-255s-114.167-255-255-255z" fill="url(#SVGID_2_)"/><path d="m282.833 27.416c-31.559-21.164-71.16-26.607-107.271-14.781-101.934 33.386-175.562 129.271-175.562 242.365 0 112.416 72.747 207.829 173.731 241.757 37.336 12.544 78.217 6.878 110.768-15.299 72.341-49.287 119.847-132.32 119.847-226.458 0-94.859-48.236-178.442-121.513-227.584z" fill="url(#SVGID_3_)"/><g><path d="m280.576 412.799c0 6.991 1.211 13.699 3.434 19.927 6.93 19.412 2.869 39.731-8.453 54.559 45.239-28.309 81.615-69.459 104.019-118.351-9.956-9.034-22.964-14.748-37.211-15.341-33.879-1.41-61.789 25.639-61.789 59.206z" fill="url(#SVGID_4_)"/><path d="m346.693 86.923c-25.94 12.65-43.817 39.272-43.817 70.075 0 40.567 31.003 73.881 70.605 77.573-6.163 7.087-9.724 16.496-9.166 26.748 1.022 18.775 16.13 34.12 34.888 35.405.659.045 1.315.071 1.967.083 2.088-13.631 3.176-27.591 3.176-41.806 0-63.36-21.526-121.683-57.653-168.078z" fill="url(#SVGID_5_)"/><circle cx="230.582" cy="119.49" fill="url(#SVGID_6_)" r="37.593"/><circle cx="189.384" cy="380.271" fill="url(#SVGID_7_)" r="37.593"/><circle cx="96.022" cy="237.517" fill="url(#SVGID_8_)" r="59.259"/></g></g></svg>